<svg width="800" height="1141" viewBox="0 0 800 1141" fill="none" xmlns="http://www.w3.org/2000/svg">
<path d="M69.8003 30.5376C69.8003 13.6723 83.4726 0 100.338 0V0C117.203 0 130.876 13.6723 130.876 30.5376V30.5376C130.876 47.4029 117.203 61.0752 100.338 61.0752V61.0752C83.4726 61.0752 69.8003 47.4029 69.8003 30.5376V30.5376Z" fill="#C4CBF2"/>
<path d="M83.9785 31.0825C83.9785 21.7465 91.5473 14.1777 100.883 14.1777V14.1777C110.219 14.1777 117.788 21.7465 117.788 31.0825V31.0825C117.788 40.4185 110.219 47.9872 100.883 47.9872V47.9872C91.5473 47.9872 83.9785 40.4185 83.9785 31.0825V31.0825Z" fill="#172E73"/>
<path d="M56.7128 103.609C88.0341 103.609 113.426 129.001 113.426 160.322V160.322C113.426 191.643 88.0341 217.035 56.7128 217.035V217.035C25.3915 217.035 0.000103474 191.643 0.000103474 160.322V160.322C0.000103474 129.001 25.3915 103.609 56.7128 103.609V103.609Z" fill="#FF743C"/>
<path d="M57.2581 128.693C74.4244 128.693 88.3411 142.854 88.3411 160.322V160.322C88.3411 177.789 74.4244 191.95 57.2581 191.95V191.95C40.0919 191.95 26.1752 177.789 26.1752 160.322V160.322C26.1752 142.854 40.0919 128.693 57.2581 128.693V128.693Z" fill="#172E73"/>
<path d="M235.623 409.654L200.1 409.911C180.481 410.053 164.691 426.072 164.833 445.691V445.691L200.356 445.434C219.975 445.293 235.765 429.273 235.623 409.654V409.654Z" fill="#172E73"/>
<path d="M270.89 373.871L235.367 374.128C215.748 374.269 199.958 390.289 200.1 409.908V409.908L235.623 409.651C255.242 409.509 271.032 393.49 270.89 373.871V373.871Z" fill="#3D64D9"/>
<path d="M307.953 586.755L307.44 515.709C307.157 476.471 338.736 444.432 377.974 444.149V444.149L378.487 515.195C378.77 554.433 347.191 586.472 307.953 586.755V586.755Z" fill="#F0F1F1"/>
<path d="M342.96 514.964L342.705 479.742C342.563 460.092 358.353 444.047 377.972 443.905V443.905L378.226 479.127C378.368 498.778 362.579 514.822 342.96 514.964V514.964Z" fill="#F2D5BB"/>
<path d="M22.2245 375.423L93.2713 374.91C132.509 374.626 164.088 342.587 163.805 303.35V303.35L92.7581 303.863C53.5203 304.146 21.941 336.185 22.2245 375.423V375.423Z" fill="#F0F1F1"/>
<path d="M93.2595 339.385L128.481 339.13C148.131 338.988 163.946 322.969 163.805 303.35V303.35L128.583 303.604C108.932 303.746 93.1177 319.766 93.2595 339.385V339.385Z" fill="#172E73"/>
<path d="M163.805 303.35L92.7581 303.863C53.5204 304.146 21.4815 272.567 21.1981 233.329V233.329L92.2449 232.816C131.483 232.533 163.521 264.112 163.805 303.35V303.35Z" fill="#172E73"/>
<path d="M92.5015 268.34L57.1576 268.595C37.4396 268.738 21.3398 252.949 21.198 233.33V233.33L56.5419 233.074C76.2606 232.932 92.3597 248.721 92.5015 268.34V268.34Z" fill="#3D64D9"/>
<path d="M42.7821 304.469C42.8671 316.241 33.3937 325.852 21.622 325.937V325.937C9.85025 326.022 0.239016 316.549 0.153978 304.777V304.777C0.0689395 293.005 9.5423 283.394 21.314 283.309V283.309C33.0858 283.224 42.697 292.697 42.7821 304.469V304.469Z" fill="#FF743C"/>
<path d="M32.0016 304.425C32.0441 310.311 27.3071 315.117 21.4216 315.159V315.159C15.5361 315.202 10.7301 310.464 10.6876 304.579V304.579C10.6451 298.693 15.3821 293.887 21.2676 293.845V293.845C27.1531 293.802 31.9591 298.539 32.0016 304.425V304.425Z" fill="#C4CBF2"/>
<path d="M193.119 393.177C193.162 399.062 188.425 403.868 182.539 403.911V403.911C176.654 403.953 171.848 399.216 171.805 393.331V393.331C171.762 387.445 176.5 382.639 182.385 382.597V382.597C188.271 382.554 193.077 387.291 193.119 393.177V393.177Z" fill="#FF743C"/>
<path d="M264.414 426.962C264.456 432.848 259.719 437.654 253.834 437.696V437.696C247.948 437.739 243.142 433.002 243.1 427.116V427.116C243.057 421.231 247.794 416.425 253.68 416.382V416.382C259.565 416.34 264.371 421.077 264.414 426.962V426.962Z" fill="#3D64D9"/>
<path d="M172.977 250.361C173.015 255.638 168.768 259.947 163.491 259.985C158.214 260.023 153.906 255.776 153.868 250.499C153.83 245.223 158.076 240.914 163.353 240.876C168.63 240.838 172.939 245.084 172.977 250.361Z" fill="#FF743C"/>
<path d="M164.576 410.164C164.718 429.783 148.928 445.802 129.31 445.944V445.944C109.691 446.086 93.6713 430.296 93.5296 410.677V410.677C93.3879 391.058 109.177 375.039 128.796 374.897L164.32 374.641L164.576 410.164Z" fill="#FF743C"/>
<path d="M164.451 392.773C164.524 402.92 156.357 411.206 146.209 411.279V411.279C136.062 411.353 127.776 403.186 127.702 393.038V393.038C127.629 382.89 135.796 374.604 145.943 374.531L164.318 374.398L164.451 392.773Z" fill="#C4CBF2"/>
<path d="M307.183 480.188C307.325 499.806 291.535 515.826 271.917 515.968V515.968C252.298 516.109 236.278 500.32 236.137 480.701V480.701C235.995 461.082 251.784 445.062 271.403 444.921V444.921C291.022 444.779 307.042 460.569 307.183 480.188V480.188Z" fill="#C4CBF2"/>
<path d="M291.258 480.179C291.337 491.07 282.571 499.964 271.679 500.043V500.043C260.787 500.122 251.894 491.355 251.815 480.464V480.464C251.736 469.572 260.502 460.678 271.394 460.6V460.6C282.286 460.521 291.179 469.287 291.258 480.179V480.179Z" fill="#172E73"/>
<path d="M164.061 338.873C163.919 319.254 179.654 303.235 199.205 303.094C218.757 302.952 234.721 318.742 234.863 338.361C235.005 357.98 219.27 373.999 199.719 374.14L164.318 374.396L164.061 338.873Z" fill="#F2D5BB"/>
<path d="M589.752 830.82C589.473 792.207 620.549 760.679 659.161 760.4L659.667 830.314L589.752 830.82Z" fill="#FF743C"/>
<path d="M520.848 971.154C482.236 971.433 450.708 940.357 450.429 901.745L520.343 901.24L520.848 971.154Z" fill="#F2D5BB"/>
<path d="M659.161 760.4V760.4C697.774 760.121 729.302 791.196 729.581 829.809V829.809L659.666 830.314L659.161 760.4Z" fill="#172E73"/>
<path d="M659.409 794.636C679.115 794.494 695.204 810.353 695.347 830.059L659.666 830.316L659.409 794.636Z" fill="#3D64D9"/>
<path d="M660.426 935.428L625.469 935.68C606.163 935.82 590.625 951.584 590.764 970.89V970.89L625.721 970.637C645.027 970.498 660.565 954.734 660.426 935.428V935.428Z" fill="#172E73"/>
<path d="M695.13 900.215L660.173 900.467C640.867 900.607 625.329 916.371 625.469 935.677V935.677L660.426 935.424C679.732 935.285 695.27 919.521 695.13 900.215V900.215Z" fill="#3D64D9"/>
<path d="M661.688 1110.21L661.183 1040.3C660.904 1001.69 629.376 970.611 590.764 970.89L591.269 1040.8C591.548 1079.42 623.076 1110.49 661.688 1110.21Z" fill="#FF743C"/>
<path d="M626.224 1040.31L625.974 1005.65C625.834 986.313 610.07 970.751 590.764 970.89V970.89L591.014 1005.55C591.154 1024.89 606.918 1040.45 626.224 1040.31V1040.31Z" fill="#172E73"/>
<path d="M451.441 1041.81L521.355 1041.31C559.967 1041.03 591.043 1009.5 590.764 970.891V970.891L520.85 971.396C482.238 971.675 451.162 1003.2 451.441 1041.81V1041.81Z" fill="#172E73"/>
<path d="M521.102 1006.35L555.883 1006.1C575.286 1005.96 590.904 990.195 590.764 970.889V970.889L555.984 971.14C536.579 971.28 520.963 987.045 521.102 1006.35V1006.35Z" fill="#F0F1F1"/>
<path d="M450.429 901.743L520.343 901.237C558.955 900.959 590.031 869.43 589.752 830.818V830.818L519.838 831.323C481.226 831.602 450.15 863.13 450.429 901.743V901.743Z" fill="#F0F1F1"/>
<path d="M520.332 866.279L554.992 866.028C574.329 865.889 589.892 850.124 589.752 830.818V830.818L555.092 831.069C535.754 831.208 520.192 846.973 520.332 866.279V866.279Z" fill="#172E73"/>
<path d="M660.171 900.229L730.086 899.724C768.698 899.445 799.774 867.917 799.495 829.305V829.305L729.581 829.81C690.968 830.089 659.893 861.617 660.171 900.229V900.229Z" fill="#F0F1F1"/>
<path d="M730.074 864.765L764.735 864.515C784.071 864.375 799.634 848.611 799.495 829.305V829.305L764.834 829.555C745.497 829.695 729.935 845.459 730.074 864.765V864.765Z" fill="#FF743C"/>
<path d="M589.752 830.818L519.838 831.323C481.226 831.602 449.698 800.527 449.419 761.914V761.914L519.333 761.409C557.945 761.13 589.473 792.206 589.752 830.818V830.818Z" fill="#172E73"/>
<path d="M519.586 796.367L484.805 796.618C465.402 796.759 449.558 781.221 449.419 761.915V761.915L484.199 761.664C503.604 761.524 519.446 777.061 519.586 796.367V796.367Z" fill="#3D64D9"/>
<path d="M448.914 692L449.419 761.914C449.698 800.526 418.622 832.054 380.01 832.333V832.333L379.505 762.419C379.226 723.807 410.302 692.279 448.914 692V692Z" fill="#3D64D9"/>
<path d="M414.463 762.409L414.714 797.07C414.854 816.406 399.316 832.195 380.01 832.335V832.335L379.759 797.674C379.62 778.337 395.157 762.548 414.463 762.409V762.409Z" fill="#172E73"/>
<path d="M470.659 831.922C470.742 843.506 461.42 852.964 449.836 853.048V853.048C438.252 853.132 428.794 843.809 428.71 832.225V832.225C428.627 820.641 437.949 811.183 449.533 811.1V811.1C461.117 811.016 470.575 820.338 470.659 831.922V831.922Z" fill="#FF743C"/>
<path d="M460.05 831.878C460.092 837.67 455.431 842.399 449.639 842.441V842.441C443.847 842.483 439.118 837.821 439.076 832.03V832.03C439.034 826.238 443.696 821.509 449.487 821.467V821.467C455.279 821.425 460.009 826.086 460.05 831.878V831.878Z" fill="#C4CBF2"/>
<path d="M618.599 919.212C618.641 925.004 613.979 929.733 608.188 929.775V929.775C602.396 929.817 597.667 925.155 597.625 919.364V919.364C597.583 913.572 602.244 908.843 608.036 908.801V908.801C613.828 908.759 618.557 913.42 618.599 919.212V919.212Z" fill="#FF743C"/>
<path d="M688.757 952.46C688.799 958.252 684.137 962.981 678.346 963.023V963.023C672.554 963.065 667.825 958.403 667.783 952.612V952.612C667.741 946.82 672.402 942.091 678.194 942.049V942.049C683.986 942.007 688.715 946.668 688.757 952.46V952.46Z" fill="#3D64D9"/>
<path d="M464.222 975.54C464.264 981.332 459.603 986.061 453.811 986.103V986.103C448.019 986.145 443.29 981.483 443.248 975.692V975.692C443.206 969.9 447.868 965.171 453.659 965.129V965.129C459.451 965.087 464.18 969.749 464.222 975.54V975.54Z" fill="#FF743C"/>
<path d="M598.778 778.674C598.816 783.867 594.637 788.107 589.444 788.144C584.251 788.182 580.011 784.003 579.974 778.81C579.936 773.617 584.115 769.377 589.308 769.34C594.501 769.302 598.741 773.481 598.778 778.674Z" fill="#FF743C"/>
<path d="M590.512 935.93C590.651 955.236 575.113 971 555.807 971.139V971.139C536.501 971.279 520.737 955.741 520.597 936.435V936.435C520.458 917.129 535.996 901.365 555.302 901.225L590.259 900.973L590.512 935.93Z" fill="#FF743C"/>
<path d="M590.388 918.812C590.46 928.797 582.423 936.951 572.437 937.023V937.023C562.451 937.095 554.298 929.059 554.225 919.073V919.073C554.153 909.087 562.19 900.933 572.176 900.861L590.257 900.73L590.388 918.812Z" fill="#C4CBF2"/>
<path d="M591.522 1075.76C591.382 1056.45 575.618 1040.91 556.312 1041.05V1041.05C537.006 1041.19 521.468 1056.96 521.607 1076.26V1076.26C521.747 1095.57 537.511 1111.11 556.817 1110.97L591.774 1110.71L591.522 1075.76Z" fill="#3D64D9"/>
<path d="M591.644 1092.63C591.571 1082.65 583.418 1074.61 573.431 1074.68V1074.68C563.446 1074.76 555.409 1082.91 555.481 1092.89V1092.89C555.553 1102.88 563.707 1110.92 573.693 1110.85L591.774 1110.71L591.644 1092.63Z" fill="#172E73"/>
<path d="M730.845 1004.84C730.984 1024.14 715.446 1039.91 696.14 1040.05V1040.05C676.834 1040.18 661.07 1024.65 660.931 1005.34V1005.34C660.791 986.035 676.329 970.271 695.635 970.131V970.131C714.941 969.992 730.705 985.53 730.845 1004.84V1004.84Z" fill="#C4CBF2"/>
<path d="M715.174 1004.83C715.251 1015.55 706.625 1024.3 695.907 1024.38V1024.38C685.188 1024.45 676.437 1015.83 676.359 1005.11V1005.11C676.282 994.391 684.908 985.64 695.626 985.562V985.562C706.344 985.485 715.096 994.111 715.174 1004.83V1004.83Z" fill="#172E73"/>
<path d="M590.005 865.775C589.865 846.469 605.349 830.705 624.589 830.566C643.828 830.427 659.538 845.965 659.678 865.271C659.817 884.578 644.333 900.341 625.094 900.48L590.257 900.732L590.005 865.775Z" fill="#F2D5BB"/>
<path d="M730.085 899.723C710.779 899.863 695.241 915.627 695.381 934.933C695.52 954.239 711.284 969.777 730.591 969.637C749.897 969.498 765.435 953.734 765.295 934.428L765.043 899.471L730.085 899.723Z" fill="#FF743C"/>
<path d="M718.56 1096.97L738.811 1110.27C749.995 1117.61 765.014 1114.49 772.355 1103.31V1103.31L752.104 1090.02C740.92 1082.68 725.902 1085.79 718.56 1096.97V1096.97Z" fill="#172E73"/>
<path d="M680.584 1066.54L700.835 1079.83C712.019 1087.18 727.037 1084.06 734.379 1072.88V1072.88L714.128 1059.58C702.943 1052.24 687.925 1055.36 680.584 1066.54V1066.54Z" fill="#C4CBF2"/>
<path d="M680.584 1066.54L700.835 1079.83C712.019 1087.18 715.135 1102.19 707.793 1113.38V1113.38L687.542 1100.09C676.358 1092.74 673.243 1077.73 680.584 1066.54V1066.54Z" fill="#FF743C"/>
<path d="M749.915 1126.43C747.713 1129.79 743.207 1130.72 739.852 1128.52V1128.52C736.497 1126.32 735.562 1121.81 737.764 1118.45V1118.45C739.967 1115.1 744.472 1114.16 747.828 1116.37V1116.37C751.183 1118.57 752.117 1123.07 749.915 1126.43V1126.43Z" fill="#3D64D9"/>
<path d="M730.362 1113.59C728.16 1116.95 723.655 1117.88 720.299 1115.68V1115.68C716.944 1113.48 716.01 1108.97 718.212 1105.62V1105.62C720.414 1102.26 724.92 1101.33 728.275 1103.53V1103.53C731.63 1105.73 732.565 1110.24 730.362 1113.59V1113.59Z" fill="#F2D5BB"/>
<path d="M252.449 575.368L236.217 593.349C227.252 603.28 228.035 618.598 237.966 627.562V627.562L254.198 609.581C263.163 599.651 262.38 584.333 252.449 575.368V575.368Z" fill="#172E73"/>
<path d="M288.33 542.489L272.098 560.47C263.133 570.401 263.916 585.719 273.846 594.683V594.683L290.078 576.703C299.043 566.772 298.26 551.454 288.33 542.489V542.489Z" fill="#C4CBF2"/>
<path d="M288.33 542.491L272.098 560.472C263.133 570.403 247.815 571.186 237.885 562.221V562.221L254.117 544.24C263.082 534.309 278.4 533.526 288.33 542.491V542.491Z" fill="#FF743C"/>
<path d="M218.548 601.852C215.569 599.163 215.334 594.567 218.023 591.588V591.588C220.712 588.609 225.308 588.374 228.287 591.064V591.064C231.266 593.753 231.501 598.348 228.812 601.328V601.328C226.122 604.307 221.527 604.541 218.548 601.852V601.852Z" fill="#3D64D9"/>
<path d="M234.22 584.491C231.241 581.801 231.006 577.206 233.696 574.227V574.227C236.385 571.248 240.98 571.013 243.96 573.702V573.702C246.939 576.392 247.174 580.987 244.484 583.966V583.966C241.795 586.945 237.199 587.18 234.22 584.491V584.491Z" fill="#F2D5BB"/>
<path d="M380 504.272C423.819 503.956 459.598 539.222 459.915 583.041L380.573 583.614L380 504.272Z" fill="#172E73"/>
<path d="M461.063 742L540.406 741.427C584.225 741.11 619.491 705.33 619.175 661.511L539.832 662.085C496.013 662.401 460.747 698.181 461.063 742Z" fill="#172E73"/>
<path d="M540.119 701.755L579.59 701.47C601.61 701.311 619.333 683.42 619.175 661.511V661.511L579.704 661.796C557.683 661.955 539.961 679.845 540.119 701.755V701.755Z" fill="#F0F1F1"/>
<path d="M482.873 503.803C482.968 516.949 472.388 527.682 459.242 527.777V527.777C446.096 527.872 435.363 517.293 435.268 504.147V504.147C435.173 491.001 445.752 480.267 458.898 480.172V480.172C472.045 480.077 482.778 490.657 482.873 503.803V503.803Z" fill="#FF743C"/>
<path d="M470.834 503.753C470.881 510.326 465.591 515.693 459.018 515.74V515.74C452.446 515.788 447.079 510.498 447.031 503.925V503.925C446.984 497.352 452.274 491.985 458.847 491.938V491.938C465.419 491.89 470.786 497.18 470.834 503.753V503.753Z" fill="#C4CBF2"/>
<path d="M475.569 666.79C475.616 673.363 470.326 678.73 463.753 678.777V678.777C457.181 678.825 451.813 673.535 451.766 666.962V666.962C451.718 660.389 457.009 655.022 463.581 654.975V654.975C470.154 654.927 475.521 660.217 475.569 666.79V666.79Z" fill="#FF743C"/>
<path d="M380.861 623.56C381.02 645.47 398.91 663.103 420.819 662.945V662.945C442.729 662.787 460.362 644.897 460.204 622.987V622.987C460.045 601.078 442.155 583.444 420.246 583.603L380.575 583.889L380.861 623.56Z" fill="#FF743C"/>
<path d="M380.723 604.408C380.805 615.74 390.058 624.861 401.391 624.779V624.779C412.724 624.697 421.844 615.444 421.762 604.112V604.112C421.68 592.779 412.427 583.658 401.095 583.74L380.575 583.888L380.723 604.408Z" fill="#C4CBF2"/>
</svg>
