<svg width="218" height="361" viewBox="0 0 218 361" fill="none" xmlns="http://www.w3.org/2000/svg">
<path d="M126.721 180.448C176.464 180.448 216.79 220.774 216.79 270.517H126.721V180.448Z" fill="#F2D5BB"/>
<path d="M216.79 90.0693H126.721C76.9773 90.0693 36.6516 130.395 36.6516 180.138H126.721C176.464 180.138 216.79 139.813 216.79 90.0693Z" fill="#172E73"/>
<path d="M126.721 135.104H81.9138C56.9164 135.104 36.6516 155.266 36.6516 180.138H81.4585C106.457 180.138 126.721 159.975 126.721 135.104Z" fill="#F0F1F1"/>
<path d="M216.79 270.518H126.721C76.9773 270.518 36.6516 310.843 36.6516 360.587H126.721C176.464 360.587 216.79 320.261 216.79 270.518Z" fill="#F0F1F1"/>
<path d="M126.41 315.553H81.7577C56.8465 315.553 36.6516 335.716 36.6516 360.587H81.304C106.216 360.587 126.41 340.424 126.41 315.553Z" fill="#172E73"/>
<path d="M0.313477 246.447C0.313477 238.986 6.36251 232.937 13.8238 232.937C21.2851 232.937 27.3342 238.986 27.3342 246.447C27.3342 253.908 21.2851 259.957 13.8238 259.957C6.36251 259.957 0.313477 253.908 0.313477 246.447Z" fill="#FF743C"/>
<path d="M199.708 175.325C199.708 167.863 205.757 161.814 213.218 161.814C220.679 161.814 226.728 167.863 226.728 175.325C226.728 182.786 220.679 188.835 213.218 188.835C205.757 188.835 199.708 182.786 199.708 175.325Z" fill="#FF743C"/>
<path d="M36.6516 225.172C36.6516 200.301 56.8145 180.138 81.6861 180.138C106.558 180.138 126.721 200.301 126.721 225.172C126.721 250.044 106.558 270.207 81.6861 270.207H36.6516V225.172Z" fill="#FF743C"/>
<path d="M36.6516 247.224C36.6516 234.36 47.0805 223.931 59.9458 223.931C72.8101 223.931 83.239 234.36 83.239 247.224C83.239 260.089 72.8101 270.518 59.9458 270.518H36.6516V247.224Z" fill="#C4CBF2"/>
<path d="M216.79 45.0345C216.79 20.1629 196.627 0 171.755 0C146.884 0 126.721 20.1629 126.721 45.0345C126.721 69.9062 146.884 90.069 171.755 90.069H216.79V45.0345Z" fill="#F2D5BB"/>
<path d="M216.79 66.7757C216.79 53.9113 206.361 43.4824 193.496 43.4824C180.631 43.4824 170.202 53.9113 170.202 66.7757C170.202 79.6409 180.631 90.0698 193.496 90.0698H216.79V66.7757Z" fill="#FF743C"/>
<path d="M36.6516 45.0345C36.6516 69.9062 56.8145 90.069 81.6861 90.069C106.558 90.069 126.721 69.9062 126.721 45.0345C126.721 20.1629 106.558 0 81.6861 0H36.6516V45.0345Z" fill="#3D64D9"/>
<path d="M36.6516 23.2942C36.6516 36.1585 47.0805 46.5874 59.9458 46.5874C72.8101 46.5874 83.239 36.1585 83.239 23.2942C83.239 10.4289 72.8101 0 59.9458 0H36.6516V23.2942Z" fill="#172E73"/>
</svg>
