<svg width="456" height="94" viewBox="0 0 456 94" fill="none" xmlns="http://www.w3.org/2000/svg">
<path d="M442.667 0H361.166C316.155 0 279.665 36.4896 279.665 81.5009H361.166C406.177 81.5009 442.667 45.0113 442.667 0Z" fill="#F0F1F1"/>
<path d="M360.885 40.75H320.48C297.939 40.75 279.665 58.9948 279.665 81.5005H320.07C342.612 81.5005 360.885 63.2557 360.885 40.75Z" fill="#172E73"/>
<path d="M198.164 0H116.663C71.6517 0 35.1621 36.4896 35.1621 81.5009H116.663C161.674 81.5009 198.164 45.0113 198.164 0Z" fill="#F0F1F1"/>
<path d="M116.382 40.75H75.9774C53.4359 40.75 35.1621 58.9948 35.1621 81.5005H75.5667C98.109 81.5005 116.382 63.2557 116.382 40.75Z" fill="#FF743C"/>
<path d="M430.863 81.3609C430.863 74.6093 436.337 69.1357 443.088 69.1357C449.84 69.1357 455.314 74.6093 455.314 81.3609C455.314 88.1124 449.84 93.586 443.088 93.586C436.337 93.586 430.863 88.1124 430.863 81.3609Z" fill="#C4CBF2"/>
<path d="M24.7638 58.8785C24.7638 65.63 19.2904 71.1036 12.5386 71.1036C5.78683 71.1036 0.313477 65.63 0.313477 58.8785C0.313477 52.1269 5.78683 46.6533 12.5386 46.6533C19.2904 46.6533 24.7638 52.1269 24.7638 58.8785Z" fill="#FF743C"/>
<path d="M24.7638 20.3755C24.7638 27.1271 19.2904 32.6007 12.5386 32.6007C5.78683 32.6007 0.313477 27.1271 0.313477 20.3755C0.313477 13.624 5.78683 8.15039 12.5386 8.15039C19.2904 8.15039 24.7638 13.624 24.7638 20.3755Z" fill="#3D64D9"/>
<path d="M279.665 40.7505C279.665 63.2561 261.483 81.5009 239.055 81.5009C216.627 81.5009 198.445 63.2561 198.445 40.7505C198.445 18.2448 216.627 0 239.055 0H279.665V40.7505Z" fill="#F2D5BB"/>
</svg>
