<svg width="211" height="374" viewBox="0 0 211 374" fill="none" xmlns="http://www.w3.org/2000/svg">
<path d="M93.2351 102.416C43.33 101.971 3.23429 61.1531 3.67969 11.248L94.0415 12.0545L93.2351 102.416Z" fill="#F0F1F1"/>
<path d="M184.403 12.8604L183.597 103.222C183.151 153.127 142.334 193.223 92.4285 192.778L93.235 102.416C93.6804 52.5107 134.498 12.4149 184.403 12.8604Z" fill="#172E73"/>
<path d="M138.416 102.82L138.015 147.773C137.791 172.851 117.381 193.002 92.4286 192.779L92.8298 147.826C93.0536 122.747 113.463 102.598 138.416 102.82Z" fill="#3D64D9"/>
<path d="M2.06683 191.972L92.4287 192.778C142.334 193.224 182.429 234.042 181.984 283.947L91.6222 283.14C41.7172 282.695 1.62143 241.877 2.06683 191.972Z" fill="#3D64D9"/>
<path d="M92.3369 237.962L137.135 238.362C162.127 238.585 182.207 258.994 181.984 283.947L137.186 283.547C112.194 283.324 92.1142 262.914 92.3369 237.962Z" fill="#172E73"/>
<path d="M183.341 166.791C198.313 166.925 210.341 179.17 210.208 194.142C210.074 209.114 197.829 221.142 182.857 221.008C167.885 220.875 155.857 208.63 155.991 193.658C156.124 178.686 168.369 166.658 183.341 166.791Z" fill="#FF743C"/>
<path d="M183.062 180.499C190.548 180.566 196.563 186.689 196.496 194.174C196.429 201.66 190.306 207.675 182.82 207.608C175.335 207.541 169.32 201.418 169.387 193.932C169.454 186.447 175.577 180.432 183.062 180.499Z" fill="#C4CBF2"/>
<path d="M117.208 0.108339C123.92 0.16824 129.312 5.65734 129.252 12.3689C129.192 19.0805 123.703 24.4725 116.991 24.4126C110.28 24.3527 104.888 18.8636 104.948 12.152C105.008 5.44043 110.497 0.0484387 117.208 0.108339Z" fill="#FF743C"/>
<path d="M48.0542 102.014C73.0067 102.236 93.0546 122.645 92.8319 147.598C92.6092 172.55 72.2002 192.598 47.2477 192.376C22.2952 192.153 2.24732 171.744 2.47002 146.791C2.69272 121.839 23.1017 101.791 48.0542 102.014Z" fill="#FF743C"/>
<path d="M48.3404 122.271C62.1931 122.395 73.3234 133.726 73.1997 147.578C73.0761 161.431 61.7454 172.561 47.8926 172.438C34.0399 172.314 22.9097 160.983 23.0333 147.131C23.1569 133.278 34.4876 122.148 48.3404 122.271Z" fill="#172E73"/>
<path d="M46.3009 282.737C21.3484 282.514 0.939417 302.562 0.716716 327.514C0.494015 352.467 20.5419 372.876 45.4944 373.099C70.4469 373.321 90.8559 353.273 91.0786 328.321L91.4818 283.14L46.3009 282.737Z" fill="#C4CBF2"/>
<path d="M68.1113 282.931C55.2052 282.815 44.649 293.185 44.5338 306.092C44.4186 318.998 54.788 329.554 67.6942 329.67C80.6013 329.785 91.1575 319.415 91.2727 306.509L91.4812 283.139L68.1113 282.931Z" fill="#FF743C"/>
<path d="M181.895 328.819C181.672 353.772 161.263 373.819 136.311 373.597C111.358 373.374 91.3104 352.965 91.5331 328.013C91.7558 303.06 112.165 283.012 137.117 283.235C162.07 283.458 182.118 303.867 181.895 328.819Z" fill="#FF743C"/>
<path d="M161.637 329.106C161.513 342.959 150.183 354.089 136.33 353.966C122.477 353.842 111.347 342.511 111.471 328.659C111.594 314.806 122.925 303.676 136.778 303.799C150.63 303.923 161.761 315.254 161.637 329.106Z" fill="#172E73"/>
</svg>
