<svg width="452" height="100" viewBox="0 0 452 100" fill="none" xmlns="http://www.w3.org/2000/svg">
<path d="M205.491 16.9805C250.818 16.9805 287.563 53.7254 287.563 99.0517H205.491V16.9805Z" fill="#F2D5BB"/>
<path d="M41.3491 57.7329H82.3847C105.048 57.7329 123.42 39.3604 123.42 16.6973H82.3847C59.7216 16.6973 41.3491 35.0697 41.3491 57.7329Z" fill="#172E73"/>
<path d="M0.313477 98.768H41.3491C64.0122 98.768 82.3847 80.3956 82.3847 57.7324H41.3491C18.6859 57.7324 0.313477 76.1049 0.313477 98.768Z" fill="#3D64D9"/>
<path d="M90.3088 77.1173C90.3088 70.3185 95.8207 64.8066 102.62 64.8066C109.418 64.8066 114.93 70.3185 114.93 77.1173C114.93 83.9161 109.418 89.428 102.62 89.428C95.8207 89.428 90.3088 83.9161 90.3088 77.1173Z" fill="#FF743C"/>
<path d="M8.23755 37.4962C8.23755 30.6974 13.7494 25.1855 20.5482 25.1855C27.347 25.1855 32.8589 30.6974 32.8589 37.4962C32.8589 44.295 27.347 49.8069 20.5482 49.8069C13.7494 49.8069 8.23755 44.295 8.23755 37.4962Z" fill="#3D64D9"/>
<path d="M271.997 12.3107C271.997 5.5119 277.509 0 284.308 0C291.107 0 296.619 5.5119 296.619 12.3107C296.619 19.1095 291.107 24.6214 284.308 24.6214C277.509 24.6214 271.997 19.1095 271.997 12.3107Z" fill="#FF743C"/>
<path d="M123.42 57.7329C123.42 35.0697 141.793 16.6973 164.456 16.6973C187.119 16.6973 205.491 35.0697 205.491 57.7329C205.491 80.396 187.119 98.7685 164.456 98.7685H123.42V57.7329Z" fill="#FF743C"/>
<path d="M123.42 77.8265C123.42 66.1044 132.923 56.6016 144.646 56.6016C156.368 56.6016 165.871 66.1044 165.871 77.8265C165.871 89.5493 156.368 99.0522 144.646 99.0522H123.42V77.8265Z" fill="#C4CBF2"/>
<path d="M369.634 57.7329C369.634 35.0697 351.261 16.6973 328.598 16.6973C305.935 16.6973 287.563 35.0697 287.563 57.7329C287.563 80.396 305.935 98.7685 328.598 98.7685H369.634V57.7329Z" fill="#FF743C"/>
<path d="M369.634 77.5433C369.634 65.8212 360.131 56.3184 348.408 56.3184C336.686 56.3184 327.183 65.8212 327.183 77.5433C327.183 89.2661 336.686 98.769 348.408 98.769H369.634V77.5433Z" fill="#C4CBF2"/>
<path d="M369.351 98.7685C369.351 53.4414 406.096 16.6973 451.422 16.6973V98.7685H369.351Z" fill="#3D64D9"/>
<path d="M409.538 98.7694C409.538 75.6368 428.289 56.8848 451.422 56.8848V98.7694H409.538Z" fill="#F2D5BB"/>
</svg>
